<svg width="171" height="107" viewBox="0 0 171 107" fill="none" xmlns="http://www.w3.org/2000/svg">
<path d="M34.8799 50.6399C32.3599 48.9599 29.3599 47.9999 26.3599 47.0399C23.9599 46.1999 20.2399 45.4799 18.3199 43.6799C15.7999 41.3999 17.7199 37.6799 19.9999 36.5999C23.5999 34.4399 29.1199 35.6399 33.0799 36.2399C34.6399 32.8799 35.8399 30.2399 37.5199 26.7599C16.9999 12.2399 -10.6001 41.0399 12.3199 55.4399C18.3199 59.1599 32.8399 59.6399 28.6399 68.7599C22.3999 76.5599 13.3999 69.3599 6.67992 67.0799C4.51992 70.5599 2.23992 74.9999 0.919922 77.7599C2.95992 79.6799 5.35992 81.2399 7.87992 82.4399C18.9199 87.2399 36.9199 85.0799 42.0799 72.5999C45.1999 64.9199 41.9599 55.1999 34.8799 50.6399ZM16.7599 88.4399C15.9199 91.5599 15.9199 105 16.7599 106.8C20.3599 106.8 27.9199 106.56 27.9199 106.56C27.9199 106.56 26.8399 94.5599 26.5999 88.3199C22.9999 88.0799 20.1199 88.0799 16.7599 88.4399ZM27.6799 19.3199C27.6799 19.3199 29.2399 6.83988 29.3599 0.719878C25.2799 0.359883 21.5599 -0.360122 17.4799 0.479881C17.5999 6.83988 17.7199 12.9599 17.8399 19.3199C21.4399 19.3199 27.6799 19.3199 27.6799 19.3199Z" fill="white"/>
<path d="M48.4971 73.7999C50.1771 76.0799 79.6971 74.9999 79.6971 74.9999C79.6971 74.9999 79.4571 86.7599 79.4571 92.1599C84.9771 92.5199 94.5771 92.1599 94.5771 92.1599L94.6971 49.0799L81.0171 49.3199L80.5371 59.5199C80.5371 59.5199 72.1371 59.5199 67.9371 59.5199C68.1771 57.5999 83.4171 11.1599 83.4171 11.1599C83.4171 11.1599 74.1771 11.0399 69.0171 10.6799C66.2571 15.8399 45.6171 70.0799 48.4971 73.7999Z" fill="white"/>
<path d="M119.25 63.5999C125.01 56.2799 131.01 56.5199 135.09 63.9599C136.29 66.3599 137.37 68.8799 138.45 71.3999C142.77 80.6399 149.01 87.8399 158.25 91.9199C160.41 92.8799 164.85 93.7199 164.85 93.7199C164.85 93.7199 169.65 85.9199 170.85 81.4799C170.73 81.7199 166.05 79.6799 165.57 79.4399C161.25 76.9199 157.65 73.1999 155.25 68.7599C152.61 64.1999 151.05 58.6799 148.65 54.1199C146.61 50.1599 142.29 47.3999 140.13 46.4399C149.25 38.6399 158.97 27.9599 163.89 16.7999C159.57 13.5599 150.69 8.75988 150.69 8.75988C150.69 8.75988 150.09 9.23988 150.09 9.35988C149.13 10.7999 148.29 12.3599 147.45 13.7999C141.81 23.6399 123.69 40.9199 119.13 42.7199C118.77 32.9999 118.77 9.47988 118.77 9.47988C118.77 9.47988 108.69 8.99988 104.01 9.47988C104.01 19.1999 103.89 28.7999 103.89 37.7999C103.77 46.6799 103.65 55.5599 103.77 64.4399C104.01 73.4399 103.05 92.9999 103.05 92.9999H119.25C119.25 92.9999 119.25 71.9999 119.25 63.5999Z" fill="white"/>
</svg>
