<svg width="186" height="107" viewBox="0 0 186 107" fill="none" xmlns="http://www.w3.org/2000/svg">
<path d="M34.8799 50.6399C32.3599 48.9599 29.3599 47.9999 26.3599 47.0399C23.9599 46.1999 20.2399 45.4799 18.3199 43.6799C15.7999 41.3999 17.7199 37.6799 19.9999 36.5999C23.5999 34.4399 29.1199 35.6399 33.0799 36.2399C34.6399 32.8799 35.8399 30.2399 37.5199 26.7599C16.9999 12.2399 -10.6001 41.0399 12.3199 55.4399C18.3199 59.1599 32.8399 59.6399 28.6399 68.7599C22.3999 76.5599 13.3999 69.3599 6.67992 67.0799C4.51992 70.5599 2.23992 74.9999 0.919922 77.7599C2.95992 79.6799 5.35992 81.2399 7.87992 82.4399C18.9199 87.2399 36.9199 85.0799 42.0799 72.5999C45.1999 64.9199 41.9599 55.1999 34.8799 50.6399ZM16.7599 88.4399C15.9199 91.5599 15.9199 105 16.7599 106.8C20.3599 106.8 27.9199 106.56 27.9199 106.56C27.9199 106.56 26.8399 94.5599 26.5999 88.3199C22.9999 88.0799 20.1199 88.0799 16.7599 88.4399ZM27.6799 19.3199C27.6799 19.3199 29.2399 6.83988 29.3599 0.719878C25.2799 0.359883 21.5599 -0.360122 17.4799 0.479881C17.5999 6.83988 17.7199 12.9599 17.8399 19.3199C21.4399 19.3199 27.6799 19.3199 27.6799 19.3199Z" fill="white"/>
<path d="M94.0971 41.0399C97.9371 37.5599 99.0171 31.7999 98.6571 26.8799C98.1771 20.1599 94.9371 15.1199 88.8171 11.8799C83.8971 9.35988 78.6171 9.23988 73.3371 10.7999C68.2971 12.2399 63.8571 14.8799 61.4571 19.7999C58.4571 25.9199 57.8571 32.0399 60.9771 38.2799C61.6971 39.7199 63.1371 41.0399 64.5771 42.1199C61.6971 43.5599 58.6971 45.4799 56.6571 47.6399C51.7371 53.1599 48.8571 59.5199 48.9771 67.0799C48.9771 76.3199 52.9371 83.7599 60.1371 89.3999C67.6971 95.2799 76.4571 96.9599 85.9371 95.2799C99.3771 92.8799 112.337 80.2799 110.057 63.2399C109.217 56.9999 106.457 51.7199 102.017 47.2799C100.817 46.0799 99.3771 45.1199 97.9371 44.2799C97.2171 43.7999 96.4971 43.3199 95.6571 42.8399C95.0571 42.4799 94.0971 42.1199 93.6171 41.5199C93.7371 41.3999 93.9771 41.1599 94.0971 41.0399ZM95.0571 60.2399C97.9371 65.3999 96.9771 72.3599 93.0171 76.7999C89.6571 80.6399 85.3371 82.6799 80.4171 82.7999C70.5771 83.1599 61.5771 75.5999 63.2571 65.0399C64.0971 59.7599 67.4571 55.9199 72.2571 53.5199C74.7771 52.1999 77.4171 51.7199 81.2571 51.7199C86.7771 51.8399 91.8171 54.4799 95.0571 60.2399ZM84.1371 33.4799C81.9771 36.4799 77.6571 36.9599 74.8971 34.4399C71.1771 31.0799 71.1771 24.3599 76.9371 21.9599C81.4971 20.0399 85.0971 23.2799 85.5771 27.1199C85.6971 27.4799 85.5771 27.9599 85.5771 28.4399C85.6971 30.2399 85.2171 31.9199 84.1371 33.4799Z" fill="white"/>
<path d="M134.016 63.5999C139.776 56.2799 145.776 56.5199 149.856 63.9599C151.056 66.3599 152.136 68.8799 153.216 71.3999C157.536 80.6399 163.776 87.8399 173.016 91.9199C175.176 92.8799 179.616 93.7199 179.616 93.7199C179.616 93.7199 184.416 85.9199 185.616 81.4799C185.496 81.7199 180.816 79.6799 180.336 79.4399C176.016 76.9199 172.416 73.1999 170.016 68.7599C167.376 64.1999 165.816 58.6799 163.416 54.1199C161.376 50.1599 157.056 47.3999 154.896 46.4399C164.016 38.6399 173.736 27.9599 178.656 16.7999C174.336 13.5599 165.456 8.75988 165.456 8.75988C165.456 8.75988 164.856 9.23988 164.856 9.35988C163.896 10.7999 163.056 12.3599 162.216 13.7999C156.576 23.6399 138.456 40.9199 133.896 42.7199C133.536 32.9999 133.536 9.47988 133.536 9.47988C133.536 9.47988 123.456 8.99988 118.776 9.47988C118.776 19.1999 118.656 28.7999 118.656 37.7999C118.536 46.6799 118.416 55.5599 118.536 64.4399C118.776 73.4399 117.816 92.9999 117.816 92.9999H134.016C134.016 92.9999 134.016 71.9999 134.016 63.5999Z" fill="white"/>
</svg>
